<?xml version="1.0" encoding="UTF-8"?>
<svg xmlns="http://www.w3.org/2000/svg" xmlns:xlink="http://www.w3.org/1999/xlink" width="35.000mm" height="40.000mm" viewBox="132.522247 78.343910 35.000000 39.999992">
    <path transform="matrix(1,0,0,-1,-64.977753,189.852448)" style="stroke:#0000a0;stroke-width:0.05mm;fill:none" d="M197.5,71.508545L202.5,71.508545L202.5,72.508545L207.5,72.508545L207.5,73.008545L212.5,73.008545L212.5,73.508545L217.5,73.508545L217.5,74.508545L222.5,74.508545L222.5,75.508545L227.5,75.508545L227.5,76.508545L232.5,76.508545L232.5,111.508537L197.5,111.508537L197.5,71.508545z"/>
    <path transform="matrix(1,0,0,-1,-64.977753,189.852448)" style="stroke:#000000;stroke-width:0.05mm;fill:none" d="M197.5,71.508545L202.5,71.508545L202.5,72.508545L207.5,72.508545L207.5,73.008545L212.5,73.008545L212.5,73.508545L217.5,73.508545L217.5,74.508545L222.5,74.508545L222.5,75.508545L227.5,75.508545L227.5,76.508545L232.5,76.508545L232.5,111.508537L197.5,111.508537L197.5,71.508545z"/>
    <path transform="matrix(0,1,1,-0,134.110748,108.495567)" style="stroke:#00a000;stroke-width:0.05mm;fill:none" d="M-5.025635,-0.584473L-4.918213,-0.566406C-4.641222,-0.497771,-4.418397,-0.29244,-4.327393,-0.021973C-4.120511,0.601497,-4.127978,1.27507,-4.348633,1.893799C-4.510839,2.281721,-4.933546,2.49271,-5.341064,2.38916C-5.701521,2.29223,-5.969838,1.991248,-6.024902,1.62207C-6.156931,1.057977,-6.124146,0.468108,-5.93042,-0.077881C-5.782142,-0.435204,-5.407766,-0.644818,-5.025635,-0.584473zM-1.60498,-0.584473C-1.534146,-0.576996,-1.46447,-0.561012,-1.397461,-0.536865C-1.166518,-0.44524,-0.987163,-0.257051,-0.906738,-0.021973C-0.699718,0.601455,-0.707101,1.275059,-0.927734,1.893799C-1.090103,2.281698,-1.512832,2.492646,-1.92041,2.38916C-2.280858,2.292218,-2.54917,1.99124,-2.604248,1.62207C-2.736326,1.057968,-2.703455,0.468057,-2.509521,-0.077881C-2.361349,-0.435188,-1.987058,-0.644811,-1.60498,-0.584473zM0.67627,-0.584473C0.999287,-0.55066,1.272714,-0.330389,1.374512,-0.021973C1.581371,0.601499,1.573903,1.275067,1.353271,1.893799C1.191065,2.281721,0.768359,2.49271,0.36084,2.38916C0.000366,2.292254,-0.267958,1.991263,-0.322998,1.62207C-0.455051,1.057976,-0.422266,0.468104,-0.228516,-0.077881C-0.080256,-0.435224,0.294131,-0.644843,0.67627,-0.584473zM-6.862549,1.324463L-6.46582,1.324463L-6.46582,1.655029L-6.862549,1.655029L-6.862549,2.358154L-7.2229,2.358154L-7.2229,1.655029L-8.496826,1.655029L-8.496826,1.324463L-7.156982,-0.578369L-6.862549,-0.578369L-6.862549,1.324463zM-3.203613,2.358154L-3.614258,2.358154L-3.614258,1.94751L-3.203613,1.94751L-3.203613,2.358154zM4.359863,0.193848C4.633815,0.225856,4.844556,0.452013,4.857178,0.727539L4.86792,0.897949L4.86792,2.358154L4.509277,2.358154L4.509277,1.018066C4.541832,0.845389,4.48008,0.668409,4.347168,0.553467C4.152201,0.450515,3.913063,0.487496,3.758301,0.644531C3.647904,0.778055,3.594565,0.94974,3.609863,1.122314L3.609863,2.358154L3.249512,2.358154L3.249512,0.976074C3.281614,0.798063,3.200218,0.618543,3.045166,0.525391C2.844148,0.45231,2.619015,0.511534,2.47998,0.674072C2.371155,0.846818,2.323981,1.051439,2.346191,1.254395L2.346191,2.358154L1.985596,2.358154L1.985596,0.230957L2.308105,0.230957L2.308105,0.529297L2.424805,0.388428C2.716332,0.102719,3.18362,0.107306,3.469482,0.398682C3.505976,0.445987,3.534509,0.498928,3.553955,0.55542L3.689697,0.392334C3.867455,0.221079,4.117515,0.147018,4.359863,0.193848zM7.776855,0.193848C8.050807,0.225856,8.261549,0.452013,8.27417,0.727539L8.284668,0.897949L8.284668,2.358154L7.92627,2.358154L7.92627,1.018066C7.958841,0.845343,7.896977,0.66831,7.763916,0.553467C7.568949,0.450505,7.329807,0.487487,7.175049,0.644531C7.064885,0.77817,7.011654,0.949791,7.026855,1.122314L7.026855,2.358154L6.66626,2.358154L6.66626,0.976074C6.698435,0.798048,6.617025,0.618499,6.461914,0.525391C6.260969,0.452331,6.035921,0.511559,5.896973,0.674072C5.788119,0.846817,5.740866,1.051411,5.762939,1.254395L5.762939,2.358154L5.402344,2.358154L5.402344,0.230957L5.724854,0.230957L5.724854,0.529297L5.841553,0.388428C6.133194,0.102776,6.600495,0.107362,6.886475,0.398682C6.92277,0.446076,6.951209,0.498997,6.970703,0.55542L7.106445,0.392334C7.284324,0.221117,7.534435,0.147067,7.776855,0.193848zM-5.262207,-0.278809C-5.437097,-0.230436,-5.573823,-0.093802,-5.622314,0.081055C-5.767425,0.618205,-5.770704,1.183616,-5.631836,1.722412C-5.561088,1.990232,-5.291737,2.155266,-5.020996,2.09668C-4.776637,2.001463,-4.610506,1.772579,-4.595703,1.510742C-4.518828,1.040355,-4.536753,0.559552,-4.648438,0.096191C-4.721558,-0.171311,-4.990815,-0.335822,-5.262207,-0.278809zM-1.841309,-0.278809C-2.016236,-0.23049,-2.152979,-0.09384,-2.201416,0.081055C-2.346474,0.618208,-2.349837,1.183573,-2.211182,1.722412C-2.140347,1.990276,-1.870896,2.155305,-1.600098,2.09668C-1.355909,2.001239,-1.189873,1.772486,-1.174805,1.510742C-1.098081,1.040331,-1.116088,0.559547,-1.227783,0.096191C-1.300834,-0.171251,-1.569981,-0.33576,-1.841309,-0.278809zM0.439697,-0.278809L0.334473,-0.239258C0.212407,-0.168118,0.121496,-0.05387,0.07959,0.081055C-0.065545,0.618201,-0.068825,1.183619,0.070068,1.722412C0.14072,1.990298,0.410153,2.155383,0.680908,2.09668C0.925252,2.001447,1.091379,1.77257,1.106201,1.510742C1.183076,1.040355,1.165151,0.559552,1.053467,0.096191C0.98033,-0.171295,0.711083,-0.335799,0.439697,-0.278809zM-8.142334,1.324463L-7.2229,1.324463L-7.2229,0.000488L-8.142334,1.324463z"/>
    <path transform="matrix(0.005006,0,0,-0.005006,133.022736,82.081467)" style="stroke:#00a000;stroke-width:0.05mm;fill:none" d="M218,454.575684C214.425003,453.283417,205.199997,449.746124,197.5,446.714996C189.800003,443.683868,171.350006,436.454773,156.5,430.65033C98.718086,408.065033,102.666527,409.956726,100.883057,404.004028C99.358215,398.914551,101.011543,392.693756,104.495811,390.410797C106.843399,388.872589,211.792648,347.454468,221.218079,344.346436C225.709564,342.865387,226.149338,342.89389,230.375107,344.939545C237.304047,348.293793,239.598419,354.5802,236.366928,361.35672C234.240082,365.816772,231.9431,366.97821,204.260834,377.59079C191.479294,382.490845,181.0168,386.892822,181.010834,387.372925C181.004684,387.86908,252.540787,387.986725,346.75,387.645508C437.912506,387.315308,536.349976,387.021332,565.5,386.992188C595.854553,386.961823,617.85907,386.569427,617,386.073822C616.174988,385.597839,605.375,381.289368,593,376.49939C580.625,371.709442,569.314148,367.096008,567.864685,366.247345C565.031006,364.588104,562,359.22348,562,355.867188C562,348.748413,570.561279,341.94751,577.194458,343.796967C579.012512,344.303864,588.599976,347.890259,598.5,351.766724C608.400024,355.643188,628.650024,363.559753,643.5,369.359039C687.632874,386.594025,692.982056,388.75824,695.457764,390.380371C698.484619,392.363647,700.389343,398.111176,699.532776,402.67691C698.259033,409.466766,700.525513,408.372559,633.5,434.555878C624.150024,438.208435,609.164001,444.076111,600.197815,447.595184C574.347656,457.740906,574.888977,457.608765,569.624878,455.060455C561.776367,451.261047,559.93158,442.800079,565.507019,436.174011C567.411377,433.910797,573.416931,431.156891,593.375488,423.394562C607.368042,417.952545,618.677917,413.357605,618.508484,413.183563C617.988708,412.649597,180.999161,412.466248,181.011612,413C181.018021,413.274994,190.805542,417.267792,202.761642,421.872833C232.366043,433.275421,234.253784,434.211945,236.305557,438.514557C238.414139,442.93631,238.435669,445.279633,236.407028,449.554657C235.374008,451.731598,233.329727,453.630157,230.591309,454.955811C225.456619,457.441467,225.971146,457.457001,218,454.575684z"/>
    <path transform="matrix(-0,1,1,0,134.110748,87.503464)" style="stroke:#00a000;stroke-width:0.05mm;fill:none" d="M-5.138672,-0.584473L-5.031494,-0.566406C-4.754451,-0.497852,-4.531602,-0.292499,-4.440674,-0.021973C-4.233632,0.601453,-4.241014,1.275061,-4.46167,1.893799C-4.623877,2.281721,-5.046583,2.49271,-5.454102,2.38916C-5.814533,2.292114,-6.08287,1.991217,-6.138184,1.62207C-6.270213,1.057966,-6.237341,0.468064,-6.043457,-0.077881C-5.895226,-0.435256,-5.520823,-0.644886,-5.138672,-0.584473zM-1.205811,2.358154L-1.566162,2.358154L-1.566162,0.060547L-1.716797,0.184814C-1.893145,0.311936,-2.084856,0.416282,-2.287354,0.495361L-2.287354,0.146729L-2.003906,-0.010498C-1.767684,-0.150712,-1.572423,-0.350774,-1.437988,-0.590332L-1.205811,-0.590332L-1.205811,2.358154zM2.191895,0.193848C2.465846,0.225856,2.676588,0.452013,2.689209,0.727539L2.699951,0.897949L2.699951,2.358154L2.341309,2.358154L2.341309,1.018066C2.373881,0.845343,2.312017,0.66831,2.178955,0.553467C1.983988,0.450505,1.744846,0.487487,1.590088,0.644531C1.479925,0.77817,1.426693,0.949791,1.441895,1.122314L1.441895,2.358154L1.081543,2.358154L1.081543,0.976074C1.113621,0.798069,1.032229,0.618558,0.877197,0.525391C0.676179,0.45231,0.451047,0.511534,0.312012,0.674072C0.203121,0.846795,0.155944,1.051431,0.178223,1.254395L0.178223,2.358154L-0.182373,2.358154L-0.182373,0.230957L0.140137,0.230957L0.140137,0.529297L0.256836,0.388428C0.548366,0.102729,1.015648,0.107316,1.301514,0.398682C1.338008,0.445987,1.36654,0.498928,1.385986,0.55542L1.521484,0.392334C1.699363,0.221117,1.949474,0.147068,2.191895,0.193848zM5.608887,0.193848C5.882853,0.225753,6.093575,0.452,6.105957,0.727539L6.116699,0.897949L6.116699,2.358154L5.758301,2.358154L5.758301,1.018066C5.790873,0.845343,5.729009,0.66831,5.595947,0.553467C5.40098,0.450505,5.161839,0.487487,5.00708,0.644531C4.896877,0.778152,4.843642,0.949783,4.858887,1.122314L4.858887,2.358154L4.498291,2.358154L4.498291,0.976074C4.530466,0.798048,4.449056,0.6185,4.293945,0.525391C4.092999,0.452331,3.867952,0.511559,3.729004,0.674072C3.620151,0.846817,3.572897,1.05141,3.594971,1.254395L3.594971,2.358154L3.234375,2.358154L3.234375,0.230957L3.556885,0.230957L3.556885,0.529297L3.673584,0.388428C3.965224,0.102771,4.432528,0.107357,4.718506,0.398682C4.754801,0.446076,4.78324,0.498997,4.802734,0.55542L4.938477,0.392334C5.11632,0.221059,5.366465,0.146999,5.608887,0.193848zM-5.375244,-0.278809C-5.550148,-0.230456,-5.68688,-0.093816,-5.735352,0.081055C-5.880535,0.618197,-5.883815,1.183621,-5.744873,1.722412C-5.674221,1.990298,-5.404788,2.155381,-5.134033,2.09668C-4.88971,2.001424,-4.723591,1.772557,-4.70874,1.510742C-4.63176,1.040349,-4.649769,0.55951,-4.761719,0.096191C-4.834649,-0.171339,-5.103893,-0.335907,-5.375244,-0.278809zM-2.862061,1.476807L-3.969727,1.476807L-3.969727,1.114258L-2.862061,1.114258L-2.862061,1.476807z"/>
    <path transform="matrix(0,1,1,-0,139.110443,107.435463)" style="stroke:#00a000;stroke-width:0.05mm;fill:none" d="M-7.3396,-0.583984L-7.226563,-0.564453C-6.832556,-0.49552,-6.559935,-0.131633,-6.604492,0.265869C-6.63959,0.491553,-6.790865,0.682154,-7.002686,0.767578L-6.879639,0.805908C-6.605741,0.919482,-6.434537,1.194842,-6.453857,1.490723C-6.458196,1.745538,-6.566281,1.987503,-6.752977,2.160979C-6.939673,2.334455,-7.188912,2.42451,-7.443359,2.410156C-7.926777,2.431937,-8.34022,2.065538,-8.376709,1.583008L-8.016113,1.534912L-7.979736,1.677246C-7.948102,1.82099,-7.861423,1.946987,-7.737508,2.026391C-7.613594,2.105795,-7.462905,2.131904,-7.319092,2.100586C-7.160772,2.067908,-7.021828,1.973703,-6.933185,1.838517C-6.844542,1.70333,-6.813536,1.53835,-6.84668,1.380127C-6.895724,1.109641,-7.136712,0.916684,-7.411377,0.927979C-7.497429,0.930703,-7.582805,0.944153,-7.665527,0.968018L-7.625488,0.651611L-7.567383,0.655518C-7.307942,0.686151,-7.062275,0.529761,-6.980225,0.281738C-6.920119,0.056837,-7.039384,-0.177479,-7.256592,-0.26123C-7.511513,-0.364028,-7.802328,-0.247034,-7.915039,0.003662C-7.947231,0.077388,-7.969164,0.155179,-7.980225,0.234863L-8.340576,0.170898C-8.302293,-0.153523,-8.084329,-0.428836,-7.777344,-0.540527C-7.636094,-0.585607,-7.486956,-0.600413,-7.3396,-0.583984zM-5.03418,-0.580566C-4.57163,-0.503013,-4.224223,-0.115461,-4.19751,0.352783C-4.129482,0.811852,-4.160612,1.280053,-4.288818,1.726074C-4.430581,2.194274,-4.901051,2.482542,-5.382568,2.39624C-5.745465,2.345012,-6.02205,2.044825,-6.043457,1.678955L-5.697021,1.646973L-5.669922,1.760742C-5.622925,1.974114,-5.428415,2.122553,-5.210205,2.111572C-4.94717,2.107431,-4.716968,1.934385,-4.639893,1.682861C-4.555046,1.457276,-4.516762,1.216856,-4.527344,0.976074C-4.659899,1.183757,-4.876977,1.322644,-5.121094,1.355957C-5.520658,1.407634,-5.901798,1.172185,-6.034424,0.791748C-6.174481,0.412919,-6.09784,-0.011873,-5.834229,-0.317871C-5.625909,-0.530047,-5.327727,-0.627954,-5.03418,-0.580566zM-1.60498,-0.584473C-1.534146,-0.576996,-1.46447,-0.561012,-1.397461,-0.536865C-1.166518,-0.44524,-0.987163,-0.257051,-0.906738,-0.021973C-0.699718,0.601455,-0.707101,1.275059,-0.927734,1.893799C-1.090103,2.281698,-1.512832,2.492646,-1.92041,2.38916C-2.280858,2.292218,-2.54917,1.99124,-2.604248,1.62207C-2.736326,1.057968,-2.703455,0.468057,-2.509521,-0.077881C-2.361349,-0.435188,-1.987058,-0.644811,-1.60498,-0.584473zM0.67627,-0.584473C0.999287,-0.55066,1.272714,-0.330389,1.374512,-0.021973C1.581371,0.601499,1.573903,1.275067,1.353271,1.893799C1.191065,2.281721,0.768359,2.49271,0.36084,2.38916C0.000366,2.292254,-0.267958,1.991263,-0.322998,1.62207C-0.455051,1.057976,-0.422266,0.468104,-0.228516,-0.077881C-0.080256,-0.435224,0.294131,-0.644843,0.67627,-0.584473zM-3.203613,2.358154L-3.614258,2.358154L-3.614258,1.94751L-3.203613,1.94751L-3.203613,2.358154zM4.359863,0.193848C4.633815,0.225856,4.844556,0.452013,4.857178,0.727539L4.86792,0.897949L4.86792,2.358154L4.509277,2.358154L4.509277,1.018066C4.541832,0.845389,4.48008,0.668409,4.347168,0.553467C4.152201,0.450515,3.913063,0.487496,3.758301,0.644531C3.647904,0.778055,3.594565,0.94974,3.609863,1.122314L3.609863,2.358154L3.249512,2.358154L3.249512,0.976074C3.281614,0.798063,3.200218,0.618543,3.045166,0.525391C2.844148,0.45231,2.619015,0.511534,2.47998,0.674072C2.371155,0.846818,2.323981,1.051439,2.346191,1.254395L2.346191,2.358154L1.985596,2.358154L1.985596,0.230957L2.308105,0.230957L2.308105,0.529297L2.424805,0.388428C2.716332,0.102719,3.18362,0.107306,3.469482,0.398682C3.505976,0.445987,3.534509,0.498928,3.553955,0.55542L3.689697,0.392334C3.867455,0.221079,4.117515,0.147018,4.359863,0.193848zM7.776855,0.193848C8.050807,0.225856,8.261549,0.452013,8.27417,0.727539L8.284668,0.897949L8.284668,2.358154L7.92627,2.358154L7.92627,1.018066C7.958841,0.845343,7.896977,0.66831,7.763916,0.553467C7.568949,0.450505,7.329807,0.487487,7.175049,0.644531C7.064885,0.77817,7.011654,0.949791,7.026855,1.122314L7.026855,2.358154L6.66626,2.358154L6.66626,0.976074C6.698435,0.798048,6.617025,0.618499,6.461914,0.525391C6.260969,0.452331,6.035921,0.511559,5.896973,0.674072C5.788119,0.846817,5.740866,1.051411,5.762939,1.254395L5.762939,2.358154L5.402344,2.358154L5.402344,0.230957L5.724854,0.230957L5.724854,0.529297L5.841553,0.388428C6.133194,0.102776,6.600495,0.107362,6.886475,0.398682C6.92277,0.446076,6.951209,0.498997,6.970703,0.55542L7.106445,0.392334C7.284324,0.221117,7.534435,0.147067,7.776855,0.193848zM-1.841309,-0.278809C-2.016236,-0.23049,-2.152979,-0.09384,-2.201416,0.081055C-2.346474,0.618208,-2.349837,1.183573,-2.211182,1.722412C-2.140347,1.990276,-1.870896,2.155305,-1.600098,2.09668C-1.355909,2.001239,-1.189873,1.772486,-1.174805,1.510742C-1.098081,1.040331,-1.116088,0.559547,-1.227783,0.096191C-1.300834,-0.171251,-1.569981,-0.33576,-1.841309,-0.278809zM0.439697,-0.278809L0.334473,-0.239258C0.212407,-0.168118,0.121496,-0.05387,0.07959,0.081055C-0.065545,0.618201,-0.068825,1.183619,0.070068,1.722412C0.14072,1.990298,0.410153,2.155383,0.680908,2.09668C0.925252,2.001447,1.091379,1.77257,1.106201,1.510742C1.183076,1.040355,1.165151,0.559552,1.053467,0.096191C0.98033,-0.171295,0.711083,-0.335799,0.439697,-0.278809zM-5.246338,-0.279541C-5.596241,-0.171017,-5.802015,0.190636,-5.716553,0.546875C-5.693412,0.706032,-5.605762,0.84877,-5.473926,0.940884C-5.342089,1.032998,-5.177914,1.066212,-5.020508,1.033203C-4.727763,0.960814,-4.533973,0.682763,-4.567383,0.383057C-4.535413,0.081676,-4.726128,-0.199127,-5.018066,-0.280518C-5.09339,-0.29614,-5.171151,-0.295807,-5.246338,-0.279541z"/>
    <path transform="matrix(-0,1,1,0,139.165436,85.723465)" style="stroke:#00a000;stroke-width:0.05mm;fill:none" d="M-3.211426,-0.575684L-3.033203,-0.531738C-2.646813,-0.400632,-2.422475,0.002122,-2.514404,0.399658C-2.609868,0.695711,-2.788997,0.957288,-3.030518,1.15332C-3.030518,1.154541,-3.62915,1.676025,-3.630127,1.675293L-3.719727,1.756836C-3.802017,1.831562,-3.873653,1.917246,-3.932617,2.011475L-2.492432,2.011475L-2.492432,2.358154L-4.43335,2.358154C-4.396658,2.021638,-4.223536,1.715012,-3.954346,1.509766C-3.795249,1.362977,-3.63109,1.22178,-3.462158,1.086426L-3.281006,0.920654C-3.086348,0.768539,-2.944903,0.558212,-2.877441,0.320557C-2.824565,0.075777,-2.96112,-0.170398,-3.196777,-0.255127C-3.337812,-0.314548,-3.496682,-0.316059,-3.638598,-0.25878C-3.780515,-0.201501,-3.893826,-0.090135,-3.954102,0.050537C-3.98152,0.129832,-3.995225,0.21322,-3.994629,0.297119L-4.365234,0.259033C-4.361543,-0.040166,-4.201626,-0.316083,-3.943848,-0.468018C-3.71747,-0.581219,-3.460804,-0.618948,-3.211426,-0.575684zM0.368408,0.193848C0.64236,0.225856,0.853101,0.452013,0.865723,0.727539L0.876221,0.897949L0.876221,2.358154L0.517822,2.358154L0.517822,1.018066C0.550394,0.845343,0.48853,0.66831,0.355469,0.553467C0.160502,0.450505,-0.07864,0.487487,-0.233398,0.644531C-0.343562,0.77817,-0.396793,0.949791,-0.381592,1.122314L-0.381592,2.358154L-0.741943,2.358154L-0.741943,0.976074C-0.71007,0.798085,-0.791405,0.618702,-0.946289,0.525391C-1.147308,0.452289,-1.372449,0.511516,-1.511475,0.674072C-1.620298,0.846828,-1.667549,1.051414,-1.645508,1.254395L-1.645508,2.358154L-2.005859,2.358154L-2.005859,0.230957L-1.68335,0.230957L-1.68335,0.529297L-1.566895,0.388428C-1.275273,0.10273,-0.807931,0.107316,-0.521973,0.398682C-0.485479,0.445986,-0.456946,0.498928,-0.4375,0.55542L-0.302002,0.392334C-0.124123,0.221118,0.125988,0.147068,0.368408,0.193848zM3.7854,0.193848C4.059367,0.225753,4.270089,0.452,4.282471,0.727539L4.293213,0.897949L4.293213,2.358154L3.934814,2.358154L3.934814,1.018066C3.967386,0.845343,3.905522,0.66831,3.772461,0.553467C3.577494,0.450505,3.338352,0.487487,3.183594,0.644531C3.073391,0.778152,3.020156,0.949784,3.0354,1.122314L3.0354,2.358154L2.674805,2.358154L2.674805,0.976074C2.706979,0.798048,2.62557,0.6185,2.470459,0.525391C2.269513,0.452331,2.044466,0.511559,1.905518,0.674072C1.796665,0.846817,1.749411,1.051411,1.771484,1.254395L1.771484,2.358154L1.410889,2.358154L1.410889,0.230957L1.733398,0.230957L1.733398,0.529297L1.850098,0.388428C2.141738,0.102771,2.609041,0.107357,2.89502,0.398682C2.931315,0.446076,2.959754,0.498997,2.979248,0.55542L3.11499,0.392334C3.292834,0.221059,3.542978,0.146999,3.7854,0.193848z"/>
    <path transform="matrix(0.005006,0,0,-0.005006,138.022446,82.081467)" style="stroke:#00a000;stroke-width:0.05mm;fill:none" d="M218,454.575684C214.425003,453.283417,205.199997,449.746124,197.5,446.714996C189.800003,443.683868,171.350006,436.454773,156.5,430.65033C98.718086,408.065033,102.666527,409.956726,100.883057,404.004028C99.358215,398.914551,101.011543,392.693756,104.495811,390.410797C106.843399,388.872589,211.792648,347.454468,221.218079,344.346436C225.709564,342.865387,226.149338,342.89389,230.375107,344.939545C237.304047,348.293793,239.598419,354.5802,236.366928,361.35672C234.240082,365.816772,231.9431,366.97821,204.260834,377.59079C191.479294,382.490845,181.0168,386.892822,181.010834,387.372925C181.004684,387.86908,252.540787,387.986725,346.75,387.645508C437.912506,387.315308,536.349976,387.021332,565.5,386.992188C595.854553,386.961823,617.85907,386.569427,617,386.073822C616.174988,385.597839,605.375,381.289368,593,376.49939C580.625,371.709442,569.314148,367.096008,567.864685,366.247345C565.031006,364.588104,562,359.22348,562,355.867188C562,348.748413,570.561279,341.94751,577.194458,343.796967C579.012512,344.303864,588.599976,347.890259,598.5,351.766724C608.400024,355.643188,628.650024,363.559753,643.5,369.359039C687.632874,386.594025,692.982056,388.75824,695.457764,390.380371C698.484619,392.363647,700.389343,398.111176,699.532776,402.67691C698.259033,409.466766,700.525513,408.372559,633.5,434.555878C624.150024,438.208435,609.164001,444.076111,600.197815,447.595184C574.347656,457.740906,574.888977,457.608765,569.624878,455.060455C561.776367,451.261047,559.93158,442.800079,565.507019,436.174011C567.411377,433.910797,573.416931,431.156891,593.375488,423.394562C607.368042,417.952545,618.677917,413.357605,618.508484,413.183563C617.988708,412.649597,180.999161,412.466248,181.011612,413C181.018021,413.274994,190.805542,417.267792,202.761642,421.872833C232.366043,433.275421,234.253784,434.211945,236.305557,438.514557C238.414139,442.93631,238.435669,445.279633,236.407028,449.554657C235.374008,451.731598,233.329727,453.630157,230.591309,454.955811C225.456619,457.441467,225.971146,457.457001,218,454.575684z"/>
    <path transform="matrix(0,1,1,-0,144.110458,106.935463)" style="stroke:#00a000;stroke-width:0.05mm;fill:none" d="M-7.3396,-0.583984L-7.226563,-0.564453C-6.832556,-0.49552,-6.559935,-0.131633,-6.604492,0.265869C-6.63959,0.491553,-6.790865,0.682154,-7.002686,0.767578L-6.879639,0.805908C-6.605741,0.919482,-6.434537,1.194842,-6.453857,1.490723C-6.458196,1.745538,-6.566281,1.987503,-6.752977,2.160979C-6.939673,2.334455,-7.188912,2.42451,-7.443359,2.410156C-7.926777,2.431937,-8.34022,2.065538,-8.376709,1.583008L-8.016113,1.534912L-7.979736,1.677246C-7.948102,1.82099,-7.861423,1.946987,-7.737508,2.026391C-7.613594,2.105795,-7.462905,2.131904,-7.319092,2.100586C-7.160772,2.067908,-7.021828,1.973703,-6.933185,1.838517C-6.844542,1.70333,-6.813536,1.53835,-6.84668,1.380127C-6.895724,1.109641,-7.136712,0.916684,-7.411377,0.927979C-7.497429,0.930703,-7.582805,0.944153,-7.665527,0.968018L-7.625488,0.651611L-7.567383,0.655518C-7.307942,0.686151,-7.062275,0.529761,-6.980225,0.281738C-6.920119,0.056837,-7.039384,-0.177479,-7.256592,-0.26123C-7.511513,-0.364028,-7.802328,-0.247034,-7.915039,0.003662C-7.947231,0.077388,-7.969164,0.155179,-7.980225,0.234863L-8.340576,0.170898C-8.302293,-0.153523,-8.084329,-0.428836,-7.777344,-0.540527C-7.636094,-0.585607,-7.486956,-0.600413,-7.3396,-0.583984zM-4.957275,-0.576416L-4.793213,-0.534424C-4.419727,-0.408131,-4.20938,-0.012282,-4.313721,0.36792C-4.375812,0.558804,-4.527391,0.707375,-4.719482,0.765625L-4.592529,0.816406C-4.264588,0.976871,-4.093763,1.34553,-4.18335,1.699463C-4.282098,2.137837,-4.685713,2.438735,-5.134033,2.408203C-5.383996,2.426445,-5.630519,2.340285,-5.814082,2.169645C-5.997645,1.999006,-6.101541,1.759416,-6.101563,1.508789C-6.122911,1.157664,-5.885978,0.84258,-5.542725,0.765625L-5.647705,0.720215C-5.955724,0.560181,-6.079307,0.183141,-5.925781,-0.128174C-5.78487,-0.429934,-5.47235,-0.613775,-5.140137,-0.590332L-4.957275,-0.576416zM-0.868164,-0.193848L-2.039795,-0.193848L-2.198242,0.595459L-2.064209,0.514893C-1.649389,0.295781,-1.135978,0.428046,-0.878662,0.820313C-0.608521,1.278927,-0.708995,1.86506,-1.116455,2.20752C-1.544035,2.532254,-2.149508,2.468812,-2.500488,2.0625C-2.602295,1.92415,-2.663344,1.760114,-2.676758,1.588867L-2.29834,1.556885L-2.270264,1.686523C-2.237136,1.829085,-2.149189,1.953094,-2.024997,2.03053C-1.900806,2.107966,-1.750746,2.132361,-1.608154,2.099365C-1.293801,2.015753,-1.084882,1.718636,-1.112549,1.394531C-1.097114,1.220494,-1.156101,1.047726,-1.275971,0.920621C-1.395841,0.793515,-1.564859,0.724516,-1.739502,0.729736C-1.954769,0.726368,-2.156657,0.833766,-2.27417,1.01416L-2.612793,0.969971L-2.328369,-0.53833L-0.868164,-0.53833L-0.868164,-0.193848zM0.67627,-0.584473C0.999287,-0.55066,1.272714,-0.330389,1.374512,-0.021973C1.581371,0.601499,1.573903,1.275067,1.353271,1.893799C1.191065,2.281721,0.768359,2.49271,0.36084,2.38916C0.000366,2.292254,-0.267958,1.991263,-0.322998,1.62207C-0.455051,1.057976,-0.422266,0.468104,-0.228516,-0.077881C-0.080256,-0.435224,0.294131,-0.644843,0.67627,-0.584473zM-3.203613,2.358154L-3.614258,2.358154L-3.614258,1.94751L-3.203613,1.94751L-3.203613,2.358154zM4.359863,0.193848C4.633815,0.225856,4.844556,0.452013,4.857178,0.727539L4.86792,0.897949L4.86792,2.358154L4.509277,2.358154L4.509277,1.018066C4.541832,0.845389,4.48008,0.668409,4.347168,0.553467C4.152201,0.450515,3.913063,0.487496,3.758301,0.644531C3.647904,0.778055,3.594565,0.94974,3.609863,1.122314L3.609863,2.358154L3.249512,2.358154L3.249512,0.976074C3.281614,0.798063,3.200218,0.618543,3.045166,0.525391C2.844148,0.45231,2.619015,0.511534,2.47998,0.674072C2.371155,0.846818,2.323981,1.051439,2.346191,1.254395L2.346191,2.358154L1.985596,2.358154L1.985596,0.230957L2.308105,0.230957L2.308105,0.529297L2.424805,0.388428C2.716332,0.102719,3.18362,0.107306,3.469482,0.398682C3.505976,0.445987,3.534509,0.498928,3.553955,0.55542L3.689697,0.392334C3.867455,0.221079,4.117515,0.147018,4.359863,0.193848zM7.776855,0.193848C8.050807,0.225856,8.261549,0.452013,8.27417,0.727539L8.284668,0.897949L8.284668,2.358154L7.92627,2.358154L7.92627,1.018066C7.958841,0.845343,7.896977,0.66831,7.763916,0.553467C7.568949,0.450505,7.329807,0.487487,7.175049,0.644531C7.064885,0.77817,7.011654,0.949791,7.026855,1.122314L7.026855,2.358154L6.66626,2.358154L6.66626,0.976074C6.698435,0.798048,6.617025,0.618499,6.461914,0.525391C6.260969,0.452331,6.035921,0.511559,5.896973,0.674072C5.788119,0.846817,5.740866,1.051411,5.762939,1.254395L5.762939,2.358154L5.402344,2.358154L5.402344,0.230957L5.724854,0.230957L5.724854,0.529297L5.841553,0.388428C6.133194,0.102776,6.600495,0.107362,6.886475,0.398682C6.92277,0.446076,6.951209,0.498997,6.970703,0.55542L7.106445,0.392334C7.284324,0.221117,7.534435,0.147067,7.776855,0.193848zM-5.263916,0.932373C-5.564748,0.995061,-5.766073,1.277297,-5.731433,1.582606C-5.696794,1.887914,-5.437356,2.117874,-5.130127,2.111572C-4.846434,2.123391,-4.597269,1.924517,-4.545898,1.645264C-4.482657,1.361557,-4.634047,1.073452,-4.903564,0.9646C-5.018698,0.922049,-5.143059,0.910927,-5.263916,0.932373zM0.439697,-0.278809L0.334473,-0.239258C0.212407,-0.168118,0.121496,-0.05387,0.07959,0.081055C-0.065545,0.618201,-0.068825,1.183619,0.070068,1.722412C0.14072,1.990298,0.410153,2.155383,0.680908,2.09668C0.925252,2.001447,1.091379,1.77257,1.106201,1.510742C1.183076,1.040355,1.165151,0.559552,1.053467,0.096191C0.98033,-0.171295,0.711083,-0.335799,0.439697,-0.278809zM-5.234863,-0.285645C-5.455722,-0.248594,-5.616612,-0.056985,-5.616491,0.166954C-5.616371,0.390893,-5.455274,0.582328,-5.234375,0.619141C-5.112102,0.648604,-4.98298,0.628271,-4.876108,0.561964C-4.769236,0.495656,-4.693675,0.388996,-4.665771,0.266357C-4.619999,0.045547,-4.739304,-0.176386,-4.94873,-0.26001C-5.040143,-0.293836,-5.138894,-0.302684,-5.234863,-0.285645z"/>
    <path transform="matrix(-0,1,1,0,144.114456,85.675468)" style="stroke:#00a000;stroke-width:0.05mm;fill:none" d="M-3.348145,-0.583984L-3.235107,-0.564453C-2.841004,-0.495699,-2.56828,-0.131675,-2.613037,0.265869C-2.648135,0.491553,-2.799411,0.682154,-3.01123,0.767578L-2.888184,0.805908C-2.614264,0.91946,-2.443052,1.194831,-2.462402,1.490723C-2.466712,1.745551,-2.574755,1.987561,-2.76146,2.161046C-2.948166,2.33453,-3.197446,2.42454,-3.451904,2.410156C-3.935315,2.431923,-4.348751,2.065529,-4.385254,1.583008L-4.024658,1.534912L-3.988281,1.677246C-3.956625,1.820979,-3.869949,1.94697,-3.74604,2.026371C-3.622131,2.105771,-3.471449,2.131878,-3.327637,2.100586C-3.169337,2.067843,-3.030407,1.973644,-2.941735,1.838484C-2.853064,1.703324,-2.821979,1.538374,-2.85498,1.380127C-2.904202,1.109747,-3.145078,0.916879,-3.419678,0.927979C-3.505813,0.930677,-3.591273,0.944127,-3.674072,0.968018L-3.634033,0.651611L-3.575928,0.655518C-3.316459,0.686025,-3.070795,0.529703,-2.988525,0.281738C-2.928486,0.056788,-3.047869,-0.177553,-3.265137,-0.26123C-3.520056,-0.364009,-3.810861,-0.247019,-3.923584,0.003662C-3.955838,0.077348,-3.977695,0.155159,-3.988525,0.234863L-4.349121,0.170898C-4.31065,-0.153451,-4.092761,-0.42867,-3.785889,-0.540527C-3.644639,-0.585607,-3.495501,-0.600413,-3.348145,-0.583984zM0.368408,0.193848C0.64236,0.225856,0.853101,0.452013,0.865723,0.727539L0.876221,0.897949L0.876221,2.358154L0.517822,2.358154L0.517822,1.018066C0.550394,0.845343,0.48853,0.66831,0.355469,0.553467C0.160502,0.450505,-0.07864,0.487487,-0.233398,0.644531C-0.343562,0.77817,-0.396793,0.949791,-0.381592,1.122314L-0.381592,2.358154L-0.741943,2.358154L-0.741943,0.976074C-0.71007,0.798085,-0.791405,0.618702,-0.946289,0.525391C-1.147308,0.452289,-1.372449,0.511516,-1.511475,0.674072C-1.620298,0.846828,-1.667549,1.051414,-1.645508,1.254395L-1.645508,2.358154L-2.005859,2.358154L-2.005859,0.230957L-1.68335,0.230957L-1.68335,0.529297L-1.566895,0.388428C-1.275273,0.10273,-0.807931,0.107316,-0.521973,0.398682C-0.485479,0.445986,-0.456946,0.498928,-0.4375,0.55542L-0.302002,0.392334C-0.124123,0.221118,0.125988,0.147068,0.368408,0.193848zM3.7854,0.193848C4.059367,0.225753,4.270089,0.452,4.282471,0.727539L4.293213,0.897949L4.293213,2.358154L3.934814,2.358154L3.934814,1.018066C3.967386,0.845343,3.905522,0.66831,3.772461,0.553467C3.577494,0.450505,3.338352,0.487487,3.183594,0.644531C3.073391,0.778152,3.020156,0.949784,3.0354,1.122314L3.0354,2.358154L2.674805,2.358154L2.674805,0.976074C2.706979,0.798048,2.62557,0.6185,2.470459,0.525391C2.269513,0.452331,2.044466,0.511559,1.905518,0.674072C1.796665,0.846817,1.749411,1.051411,1.771484,1.254395L1.771484,2.358154L1.410889,2.358154L1.410889,0.230957L1.733398,0.230957L1.733398,0.529297L1.850098,0.388428C2.141738,0.102771,2.609041,0.107357,2.89502,0.398682C2.931315,0.446076,2.959754,0.498997,2.979248,0.55542L3.11499,0.392334C3.292834,0.221059,3.542978,0.146999,3.7854,0.193848z"/>
    <path transform="matrix(0.005006,0,0,-0.005006,143.022446,82.081467)" style="stroke:#00a000;stroke-width:0.05mm;fill:none" d="M218,454.575684C214.425003,453.283417,205.199997,449.746124,197.5,446.714996C189.800003,443.683868,171.350006,436.454773,156.5,430.65033C98.718086,408.065033,102.666527,409.956726,100.883057,404.004028C99.358215,398.914551,101.011543,392.693756,104.495811,390.410797C106.843399,388.872589,211.792648,347.454468,221.218079,344.346436C225.709564,342.865387,226.149338,342.89389,230.375107,344.939545C237.304047,348.293793,239.598419,354.5802,236.366928,361.35672C234.240082,365.816772,231.9431,366.97821,204.260834,377.59079C191.479294,382.490845,181.0168,386.892822,181.010834,387.372925C181.004684,387.86908,252.540787,387.986725,346.75,387.645508C437.912506,387.315308,536.349976,387.021332,565.5,386.992188C595.854553,386.961823,617.85907,386.569427,617,386.073822C616.174988,385.597839,605.375,381.289368,593,376.49939C580.625,371.709442,569.314148,367.096008,567.864685,366.247345C565.031006,364.588104,562,359.22348,562,355.867188C562,348.748413,570.561279,341.94751,577.194458,343.796967C579.012512,344.303864,588.599976,347.890259,598.5,351.766724C608.400024,355.643188,628.650024,363.559753,643.5,369.359039C687.632874,386.594025,692.982056,388.75824,695.457764,390.380371C698.484619,392.363647,700.389343,398.111176,699.532776,402.67691C698.259033,409.466766,700.525513,408.372559,633.5,434.555878C624.150024,438.208435,609.164001,444.076111,600.197815,447.595184C574.347656,457.740906,574.888977,457.608765,569.624878,455.060455C561.776367,451.261047,559.93158,442.800079,565.507019,436.174011C567.411377,433.910797,573.416931,431.156891,593.375488,423.394562C607.368042,417.952545,618.677917,413.357605,618.508484,413.183563C617.988708,412.649597,180.999161,412.466248,181.011612,413C181.018021,413.274994,190.805542,417.267792,202.761642,421.872833C232.366043,433.275421,234.253784,434.211945,236.305557,438.514557C238.414139,442.93631,238.435669,445.279633,236.407028,449.554657C235.374008,451.731598,233.329727,453.630157,230.591309,454.955811C225.456619,457.441467,225.971146,457.457001,218,454.575684z"/>
    <path transform="matrix(0,1,1,-0,149.110748,106.435463)" style="stroke:#00a000;stroke-width:0.05mm;fill:none" d="M-7.3396,-0.583984L-7.226563,-0.564453C-6.832556,-0.49552,-6.559935,-0.131633,-6.604492,0.265869C-6.63959,0.491553,-6.790865,0.682154,-7.002686,0.767578L-6.879639,0.805908C-6.605741,0.919482,-6.434537,1.194842,-6.453857,1.490723C-6.458196,1.745538,-6.566281,1.987503,-6.752977,2.160979C-6.939673,2.334455,-7.188912,2.42451,-7.443359,2.410156C-7.926777,2.431937,-8.34022,2.065538,-8.376709,1.583008L-8.016113,1.534912L-7.979736,1.677246C-7.948102,1.82099,-7.861423,1.946987,-7.737508,2.026391C-7.613594,2.105795,-7.462905,2.131904,-7.319092,2.100586C-7.160772,2.067908,-7.021828,1.973703,-6.933185,1.838517C-6.844542,1.70333,-6.813536,1.53835,-6.84668,1.380127C-6.895724,1.109641,-7.136712,0.916684,-7.411377,0.927979C-7.497429,0.930703,-7.582805,0.944153,-7.665527,0.968018L-7.625488,0.651611L-7.567383,0.655518C-7.307942,0.686151,-7.062275,0.529761,-6.980225,0.281738C-6.920119,0.056837,-7.039384,-0.177479,-7.256592,-0.26123C-7.511513,-0.364028,-7.802328,-0.247034,-7.915039,0.003662C-7.947231,0.077388,-7.969164,0.155179,-7.980225,0.234863L-8.340576,0.170898C-8.302293,-0.153523,-8.084329,-0.428836,-7.777344,-0.540527C-7.636094,-0.585607,-7.486956,-0.600413,-7.3396,-0.583984zM-4.957275,-0.576416L-4.793213,-0.534424C-4.419727,-0.408131,-4.20938,-0.012282,-4.313721,0.36792C-4.375812,0.558804,-4.527391,0.707375,-4.719482,0.765625L-4.592529,0.816406C-4.264588,0.976871,-4.093763,1.34553,-4.18335,1.699463C-4.282098,2.137837,-4.685713,2.438735,-5.134033,2.408203C-5.383996,2.426445,-5.630519,2.340285,-5.814082,2.169645C-5.997645,1.999006,-6.101541,1.759416,-6.101563,1.508789C-6.122911,1.157664,-5.885978,0.84258,-5.542725,0.765625L-5.647705,0.720215C-5.955724,0.560181,-6.079307,0.183141,-5.925781,-0.128174C-5.78487,-0.429934,-5.47235,-0.613775,-5.140137,-0.590332L-4.957275,-0.576416zM-1.60498,-0.584473C-1.534146,-0.576996,-1.46447,-0.561012,-1.397461,-0.536865C-1.166518,-0.44524,-0.987163,-0.257051,-0.906738,-0.021973C-0.699718,0.601455,-0.707101,1.275059,-0.927734,1.893799C-1.090103,2.281698,-1.512832,2.492646,-1.92041,2.38916C-2.280858,2.292218,-2.54917,1.99124,-2.604248,1.62207C-2.736326,1.057968,-2.703455,0.468057,-2.509521,-0.077881C-2.361349,-0.435188,-1.987058,-0.644811,-1.60498,-0.584473zM0.67627,-0.584473C0.999287,-0.55066,1.272714,-0.330389,1.374512,-0.021973C1.581371,0.601499,1.573903,1.275067,1.353271,1.893799C1.191065,2.281721,0.768359,2.49271,0.36084,2.38916C0.000366,2.292254,-0.267958,1.991263,-0.322998,1.62207C-0.455051,1.057976,-0.422266,0.468104,-0.228516,-0.077881C-0.080256,-0.435224,0.294131,-0.644843,0.67627,-0.584473zM-3.203613,2.358154L-3.614258,2.358154L-3.614258,1.94751L-3.203613,1.94751L-3.203613,2.358154zM4.359863,0.193848C4.633815,0.225856,4.844556,0.452013,4.857178,0.727539L4.86792,0.897949L4.86792,2.358154L4.509277,2.358154L4.509277,1.018066C4.541832,0.845389,4.48008,0.668409,4.347168,0.553467C4.152201,0.450515,3.913063,0.487496,3.758301,0.644531C3.647904,0.778055,3.594565,0.94974,3.609863,1.122314L3.609863,2.358154L3.249512,2.358154L3.249512,0.976074C3.281614,0.798063,3.200218,0.618543,3.045166,0.525391C2.844148,0.45231,2.619015,0.511534,2.47998,0.674072C2.371155,0.846818,2.323981,1.051439,2.346191,1.254395L2.346191,2.358154L1.985596,2.358154L1.985596,0.230957L2.308105,0.230957L2.308105,0.529297L2.424805,0.388428C2.716332,0.102719,3.18362,0.107306,3.469482,0.398682C3.505976,0.445987,3.534509,0.498928,3.553955,0.55542L3.689697,0.392334C3.867455,0.221079,4.117515,0.147018,4.359863,0.193848zM7.776855,0.193848C8.050807,0.225856,8.261549,0.452013,8.27417,0.727539L8.284668,0.897949L8.284668,2.358154L7.92627,2.358154L7.92627,1.018066C7.958841,0.845343,7.896977,0.66831,7.763916,0.553467C7.568949,0.450505,7.329807,0.487487,7.175049,0.644531C7.064885,0.77817,7.011654,0.949791,7.026855,1.122314L7.026855,2.358154L6.66626,2.358154L6.66626,0.976074C6.698435,0.798048,6.617025,0.618499,6.461914,0.525391C6.260969,0.452331,6.035921,0.511559,5.896973,0.674072C5.788119,0.846817,5.740866,1.051411,5.762939,1.254395L5.762939,2.358154L5.402344,2.358154L5.402344,0.230957L5.724854,0.230957L5.724854,0.529297L5.841553,0.388428C6.133194,0.102776,6.600495,0.107362,6.886475,0.398682C6.92277,0.446076,6.951209,0.498997,6.970703,0.55542L7.106445,0.392334C7.284324,0.221117,7.534435,0.147067,7.776855,0.193848zM-5.263916,0.932373C-5.564748,0.995061,-5.766073,1.277297,-5.731433,1.582606C-5.696794,1.887914,-5.437356,2.117874,-5.130127,2.111572C-4.846434,2.123391,-4.597269,1.924517,-4.545898,1.645264C-4.482657,1.361557,-4.634047,1.073452,-4.903564,0.9646C-5.018698,0.922049,-5.143059,0.910927,-5.263916,0.932373zM-1.841309,-0.278809C-2.016236,-0.23049,-2.152979,-0.09384,-2.201416,0.081055C-2.346474,0.618208,-2.349837,1.183573,-2.211182,1.722412C-2.140347,1.990276,-1.870896,2.155305,-1.600098,2.09668C-1.355909,2.001239,-1.189873,1.772486,-1.174805,1.510742C-1.098081,1.040331,-1.116088,0.559547,-1.227783,0.096191C-1.300834,-0.171251,-1.569981,-0.33576,-1.841309,-0.278809zM0.439697,-0.278809L0.334473,-0.239258C0.212407,-0.168118,0.121496,-0.05387,0.07959,0.081055C-0.065545,0.618201,-0.068825,1.183619,0.070068,1.722412C0.14072,1.990298,0.410153,2.155383,0.680908,2.09668C0.925252,2.001447,1.091379,1.77257,1.106201,1.510742C1.183076,1.040355,1.165151,0.559552,1.053467,0.096191C0.98033,-0.171295,0.711083,-0.335799,0.439697,-0.278809zM-5.234863,-0.285645C-5.455722,-0.248594,-5.616612,-0.056985,-5.616491,0.166954C-5.616371,0.390893,-5.455274,0.582328,-5.234375,0.619141C-5.112102,0.648604,-4.98298,0.628271,-4.876108,0.561964C-4.769236,0.495656,-4.693675,0.388996,-4.665771,0.266357C-4.619999,0.045547,-4.739304,-0.176386,-4.94873,-0.26001C-5.040143,-0.293836,-5.138894,-0.302684,-5.234863,-0.285645z"/>
    <path transform="matrix(0.005006,0,0,-0.005006,148.022751,82.081467)" style="stroke:#00a000;stroke-width:0.05mm;fill:none" d="M218,454.575684C214.425003,453.283417,205.199997,449.746124,197.5,446.714996C189.800003,443.683868,171.350006,436.454773,156.5,430.65033C98.718086,408.065033,102.666527,409.956726,100.883057,404.004028C99.358215,398.914551,101.011543,392.693756,104.495811,390.410797C106.843399,388.872589,211.792648,347.454468,221.218079,344.346436C225.709564,342.865387,226.149338,342.89389,230.375107,344.939545C237.304047,348.293793,239.598419,354.5802,236.366928,361.35672C234.240082,365.816772,231.9431,366.97821,204.260834,377.59079C191.479294,382.490845,181.0168,386.892822,181.010834,387.372925C181.004684,387.86908,252.540787,387.986725,346.75,387.645508C437.912506,387.315308,536.349976,387.021332,565.5,386.992188C595.854553,386.961823,617.85907,386.569427,617,386.073822C616.174988,385.597839,605.375,381.289368,593,376.49939C580.625,371.709442,569.314148,367.096008,567.864685,366.247345C565.031006,364.588104,562,359.22348,562,355.867188C562,348.748413,570.561279,341.94751,577.194458,343.796967C579.012512,344.303864,588.599976,347.890259,598.5,351.766724C608.400024,355.643188,628.650024,363.559753,643.5,369.359039C687.632874,386.594025,692.982056,388.75824,695.457764,390.380371C698.484619,392.363647,700.389343,398.111176,699.532776,402.67691C698.259033,409.466766,700.525513,408.372559,633.5,434.555878C624.150024,438.208435,609.164001,444.076111,600.197815,447.595184C574.347656,457.740906,574.888977,457.608765,569.624878,455.060455C561.776367,451.261047,559.93158,442.800079,565.507019,436.174011C567.411377,433.910797,573.416931,431.156891,593.375488,423.394562C607.368042,417.952545,618.677917,413.357605,618.508484,413.183563C617.988708,412.649597,180.999161,412.466248,181.011612,413C181.018021,413.274994,190.805542,417.267792,202.761642,421.872833C232.366043,433.275421,234.253784,434.211945,236.305557,438.514557C238.414139,442.93631,238.435669,445.279633,236.407028,449.554657C235.374008,451.731598,233.329727,453.630157,230.591309,454.955811C225.456619,457.441467,225.971146,457.457001,218,454.575684z"/>
    <path transform="matrix(-0,1,1,0,149.165741,85.795464)" style="stroke:#00a000;stroke-width:0.05mm;fill:none" d="M-2.87085,1.324463L-2.474365,1.324463L-2.474365,1.655029L-2.87085,1.655029L-2.87085,2.358154L-3.231445,2.358154L-3.231445,1.655029L-4.505371,1.655029L-4.505371,1.324463L-3.165283,-0.578369L-2.87085,-0.578369L-2.87085,1.324463zM0.368408,0.193848C0.64236,0.225856,0.853101,0.452013,0.865723,0.727539L0.876221,0.897949L0.876221,2.358154L0.517822,2.358154L0.517822,1.018066C0.550394,0.845343,0.48853,0.66831,0.355469,0.553467C0.160502,0.450505,-0.07864,0.487487,-0.233398,0.644531C-0.343562,0.77817,-0.396793,0.949791,-0.381592,1.122314L-0.381592,2.358154L-0.741943,2.358154L-0.741943,0.976074C-0.71007,0.798085,-0.791405,0.618702,-0.946289,0.525391C-1.147308,0.452289,-1.372449,0.511516,-1.511475,0.674072C-1.620298,0.846828,-1.667549,1.051414,-1.645508,1.254395L-1.645508,2.358154L-2.005859,2.358154L-2.005859,0.230957L-1.68335,0.230957L-1.68335,0.529297L-1.566895,0.388428C-1.275273,0.10273,-0.807931,0.107316,-0.521973,0.398682C-0.485479,0.445986,-0.456946,0.498928,-0.4375,0.55542L-0.302002,0.392334C-0.124123,0.221118,0.125988,0.147068,0.368408,0.193848zM3.7854,0.193848C4.059367,0.225753,4.270089,0.452,4.282471,0.727539L4.293213,0.897949L4.293213,2.358154L3.934814,2.358154L3.934814,1.018066C3.967386,0.845343,3.905522,0.66831,3.772461,0.553467C3.577494,0.450505,3.338352,0.487487,3.183594,0.644531C3.073391,0.778152,3.020156,0.949784,3.0354,1.122314L3.0354,2.358154L2.674805,2.358154L2.674805,0.976074C2.706979,0.798048,2.62557,0.6185,2.470459,0.525391C2.269513,0.452331,2.044466,0.511559,1.905518,0.674072C1.796665,0.846817,1.749411,1.051411,1.771484,1.254395L1.771484,2.358154L1.410889,2.358154L1.410889,0.230957L1.733398,0.230957L1.733398,0.529297L1.850098,0.388428C2.141738,0.102771,2.609041,0.107357,2.89502,0.398682C2.931315,0.446076,2.959754,0.498997,2.979248,0.55542L3.11499,0.392334C3.292834,0.221059,3.542978,0.146999,3.7854,0.193848zM-4.150879,1.324463L-3.231445,1.324463L-3.231445,0.000488L-4.150879,1.324463z"/>
    <path transform="matrix(0,1,1,-0,154.109238,105.435448)" style="stroke:#00a000;stroke-width:0.05mm;fill:none" d="M-7.3396,-0.583984L-7.226563,-0.564453C-6.832556,-0.49552,-6.559935,-0.131633,-6.604492,0.265869C-6.63959,0.491553,-6.790865,0.682154,-7.002686,0.767578L-6.879639,0.805908C-6.605741,0.919482,-6.434537,1.194842,-6.453857,1.490723C-6.458196,1.745538,-6.566281,1.987503,-6.752977,2.160979C-6.939673,2.334455,-7.188912,2.42451,-7.443359,2.410156C-7.926777,2.431937,-8.34022,2.065538,-8.376709,1.583008L-8.016113,1.534912L-7.979736,1.677246C-7.948102,1.82099,-7.861423,1.946987,-7.737508,2.026391C-7.613594,2.105795,-7.462905,2.131904,-7.319092,2.100586C-7.160772,2.067908,-7.021828,1.973703,-6.933185,1.838517C-6.844542,1.70333,-6.813536,1.53835,-6.84668,1.380127C-6.895724,1.109641,-7.136712,0.916684,-7.411377,0.927979C-7.497429,0.930703,-7.582805,0.944153,-7.665527,0.968018L-7.625488,0.651611L-7.567383,0.655518C-7.307942,0.686151,-7.062275,0.529761,-6.980225,0.281738C-6.920119,0.056837,-7.039384,-0.177479,-7.256592,-0.26123C-7.511513,-0.364028,-7.802328,-0.247034,-7.915039,0.003662C-7.947231,0.077388,-7.969164,0.155179,-7.980225,0.234863L-8.340576,0.170898C-8.302293,-0.153523,-8.084329,-0.428836,-7.777344,-0.540527C-7.636094,-0.585607,-7.486956,-0.600413,-7.3396,-0.583984zM-1.60498,-0.584473C-1.534146,-0.576996,-1.46447,-0.561012,-1.397461,-0.536865C-1.166518,-0.44524,-0.987163,-0.257051,-0.906738,-0.021973C-0.699718,0.601455,-0.707101,1.275059,-0.927734,1.893799C-1.090103,2.281698,-1.512832,2.492646,-1.92041,2.38916C-2.280858,2.292218,-2.54917,1.99124,-2.604248,1.62207C-2.736326,1.057968,-2.703455,0.468057,-2.509521,-0.077881C-2.361349,-0.435188,-1.987058,-0.644811,-1.60498,-0.584473zM0.67627,-0.584473C0.999287,-0.55066,1.272714,-0.330389,1.374512,-0.021973C1.581371,0.601499,1.573903,1.275067,1.353271,1.893799C1.191065,2.281721,0.768359,2.49271,0.36084,2.38916C0.000366,2.292254,-0.267958,1.991263,-0.322998,1.62207C-0.455051,1.057976,-0.422266,0.468104,-0.228516,-0.077881C-0.080256,-0.435224,0.294131,-0.644843,0.67627,-0.584473zM-4.172607,-0.259766C-4.814687,0.471826,-5.20683,1.388535,-5.29248,2.358154L-5.662842,2.358154C-5.601878,1.419497,-5.241883,0.525242,-4.635498,-0.193848L-6.073486,-0.193848L-6.073486,-0.540283L-4.172607,-0.540283L-4.172607,-0.259766zM-3.203613,2.358154L-3.614258,2.358154L-3.614258,1.94751L-3.203613,1.94751L-3.203613,2.358154zM4.359863,0.193848C4.633815,0.225856,4.844556,0.452013,4.857178,0.727539L4.86792,0.897949L4.86792,2.358154L4.509277,2.358154L4.509277,1.018066C4.541832,0.845389,4.48008,0.668409,4.347168,0.553467C4.152201,0.450515,3.913063,0.487496,3.758301,0.644531C3.647904,0.778055,3.594565,0.94974,3.609863,1.122314L3.609863,2.358154L3.249512,2.358154L3.249512,0.976074C3.281614,0.798063,3.200218,0.618543,3.045166,0.525391C2.844148,0.45231,2.619015,0.511534,2.47998,0.674072C2.371155,0.846818,2.323981,1.051439,2.346191,1.254395L2.346191,2.358154L1.985596,2.358154L1.985596,0.230957L2.308105,0.230957L2.308105,0.529297L2.424805,0.388428C2.716332,0.102719,3.18362,0.107306,3.469482,0.398682C3.505976,0.445987,3.534509,0.498928,3.553955,0.55542L3.689697,0.392334C3.867455,0.221079,4.117515,0.147018,4.359863,0.193848zM7.776855,0.193848C8.050807,0.225856,8.261549,0.452013,8.27417,0.727539L8.284668,0.897949L8.284668,2.358154L7.92627,2.358154L7.92627,1.018066C7.958841,0.845343,7.896977,0.66831,7.763916,0.553467C7.568949,0.450505,7.329807,0.487487,7.175049,0.644531C7.064885,0.77817,7.011654,0.949791,7.026855,1.122314L7.026855,2.358154L6.66626,2.358154L6.66626,0.976074C6.698435,0.798048,6.617025,0.618499,6.461914,0.525391C6.260969,0.452331,6.035921,0.511559,5.896973,0.674072C5.788119,0.846817,5.740866,1.051411,5.762939,1.254395L5.762939,2.358154L5.402344,2.358154L5.402344,0.230957L5.724854,0.230957L5.724854,0.529297L5.841553,0.388428C6.133194,0.102776,6.600495,0.107362,6.886475,0.398682C6.92277,0.446076,6.951209,0.498997,6.970703,0.55542L7.106445,0.392334C7.284324,0.221117,7.534435,0.147067,7.776855,0.193848zM-1.841309,-0.278809C-2.016236,-0.23049,-2.152979,-0.09384,-2.201416,0.081055C-2.346474,0.618208,-2.349837,1.183573,-2.211182,1.722412C-2.140347,1.990276,-1.870896,2.155305,-1.600098,2.09668C-1.355909,2.001239,-1.189873,1.772486,-1.174805,1.510742C-1.098081,1.040331,-1.116088,0.559547,-1.227783,0.096191C-1.300834,-0.171251,-1.569981,-0.33576,-1.841309,-0.278809zM0.439697,-0.278809L0.334473,-0.239258C0.212407,-0.168118,0.121496,-0.05387,0.07959,0.081055C-0.065545,0.618201,-0.068825,1.183619,0.070068,1.722412C0.14072,1.990298,0.410153,2.155383,0.680908,2.09668C0.925252,2.001447,1.091379,1.77257,1.106201,1.510742C1.183076,1.040355,1.165151,0.559552,1.053467,0.096191C0.98033,-0.171295,0.711083,-0.335799,0.439697,-0.278809z"/>
    <path transform="matrix(-0,1,1,0,154.112244,85.703453)" style="stroke:#00a000;stroke-width:0.05mm;fill:none" d="M-3.184326,-0.578125C-2.820014,-0.526027,-2.541545,-0.226285,-2.516357,0.140869L-2.875,0.168701L-2.933105,-0.014404C-3.038104,-0.241052,-3.297348,-0.351328,-3.533447,-0.269775C-3.817641,-0.138596,-4.004479,0.140859,-4.01709,0.453613C-4.035412,0.582852,-4.044631,0.713218,-4.044678,0.84375C-3.909787,0.629607,-3.685019,0.488173,-3.433594,0.459229C-2.96596,0.406179,-2.541869,0.737523,-2.480225,1.204102C-2.379342,1.660528,-2.601164,2.127198,-3.018799,2.337158C-3.44151,2.513212,-3.929595,2.366756,-4.185547,1.987061C-4.375057,1.614375,-4.449104,1.193555,-4.398193,0.778564C-4.407364,0.410394,-4.298963,0.048571,-4.088867,-0.253906C-3.867386,-0.516617,-3.522264,-0.64032,-3.184326,-0.578125zM0.368408,0.193848C0.64236,0.225856,0.853101,0.452013,0.865723,0.727539L0.876221,0.897949L0.876221,2.358154L0.517822,2.358154L0.517822,1.018066C0.550394,0.845343,0.48853,0.66831,0.355469,0.553467C0.160502,0.450505,-0.07864,0.487487,-0.233398,0.644531C-0.343562,0.77817,-0.396793,0.949791,-0.381592,1.122314L-0.381592,2.358154L-0.741943,2.358154L-0.741943,0.976074C-0.71007,0.798085,-0.791405,0.618702,-0.946289,0.525391C-1.147308,0.452289,-1.372449,0.511516,-1.511475,0.674072C-1.620298,0.846828,-1.667549,1.051414,-1.645508,1.254395L-1.645508,2.358154L-2.005859,2.358154L-2.005859,0.230957L-1.68335,0.230957L-1.68335,0.529297L-1.566895,0.388428C-1.275273,0.10273,-0.807931,0.107316,-0.521973,0.398682C-0.485479,0.445986,-0.456946,0.498928,-0.4375,0.55542L-0.302002,0.392334C-0.124123,0.221118,0.125988,0.147068,0.368408,0.193848zM3.7854,0.193848C4.059367,0.225753,4.270089,0.452,4.282471,0.727539L4.293213,0.897949L4.293213,2.358154L3.934814,2.358154L3.934814,1.018066C3.967386,0.845343,3.905522,0.66831,3.772461,0.553467C3.577494,0.450505,3.338352,0.487487,3.183594,0.644531C3.073391,0.778152,3.020156,0.949784,3.0354,1.122314L3.0354,2.358154L2.674805,2.358154L2.674805,0.976074C2.706979,0.798048,2.62557,0.6185,2.470459,0.525391C2.269513,0.452331,2.044466,0.511559,1.905518,0.674072C1.796665,0.846817,1.749411,1.051411,1.771484,1.254395L1.771484,2.358154L1.410889,2.358154L1.410889,0.230957L1.733398,0.230957L1.733398,0.529297L1.850098,0.388428C2.141738,0.102771,2.609041,0.107357,2.89502,0.398682C2.931315,0.446076,2.959754,0.498997,2.979248,0.55542L3.11499,0.392334C3.292834,0.221059,3.542978,0.146999,3.7854,0.193848zM-3.52124,0.782715C-3.809175,0.847649,-4.007254,1.112167,-3.988525,1.406738C-4.001044,1.649929,-3.88757,1.882595,-3.688232,2.022461C-3.467612,2.172543,-3.169034,2.131516,-2.99707,1.92749C-2.737444,1.609141,-2.774657,1.143442,-3.081543,0.870361C-3.209923,0.78217,-3.368856,0.750489,-3.52124,0.782715z"/>
    <path transform="matrix(0.005006,0,0,-0.005006,153.02124,82.081451)" style="stroke:#00a000;stroke-width:0.05mm;fill:none" d="M218,454.575684C214.425003,453.283417,205.199997,449.746124,197.5,446.714996C189.800003,443.683868,171.350006,436.454773,156.5,430.65033C98.718086,408.065033,102.666527,409.956726,100.883057,404.004028C99.358215,398.914551,101.011543,392.693756,104.495811,390.410797C106.843399,388.872589,211.792648,347.454468,221.218079,344.346436C225.709564,342.865387,226.149338,342.89389,230.375107,344.939545C237.304047,348.293793,239.598419,354.5802,236.366928,361.35672C234.240082,365.816772,231.9431,366.97821,204.260834,377.59079C191.479294,382.490845,181.0168,386.892822,181.010834,387.372925C181.004684,387.86908,252.540787,387.986725,346.75,387.645508C437.912506,387.315308,536.349976,387.021332,565.5,386.992188C595.854553,386.961823,617.85907,386.569427,617,386.073822C616.174988,385.597839,605.375,381.289368,593,376.49939C580.625,371.709442,569.314148,367.096008,567.864685,366.247345C565.031006,364.588104,562,359.22348,562,355.867188C562,348.748413,570.561279,341.94751,577.194458,343.796967C579.012512,344.303864,588.599976,347.890259,598.5,351.766724C608.400024,355.643188,628.650024,363.559753,643.5,369.359039C687.632874,386.594025,692.982056,388.75824,695.457764,390.380371C698.484619,392.363647,700.389343,398.111176,699.532776,402.67691C698.259033,409.466766,700.525513,408.372559,633.5,434.555878C624.150024,438.208435,609.164001,444.076111,600.197815,447.595184C574.347656,457.740906,574.888977,457.608765,569.624878,455.060455C561.776367,451.261047,559.93158,442.800079,565.507019,436.174011C567.411377,433.910797,573.416931,431.156891,593.375488,423.394562C607.368042,417.952545,618.677917,413.357605,618.508484,413.183563C617.988708,412.649597,180.999161,412.466248,181.011612,413C181.018021,413.274994,190.805542,417.267792,202.761642,421.872833C232.366043,433.275421,234.253784,434.211945,236.305557,438.514557C238.414139,442.93631,238.435669,445.279633,236.407028,449.554657C235.374008,451.731598,233.329727,453.630157,230.591309,454.955811C225.456619,457.441467,225.971146,457.457001,218,454.575684z"/>
    <path transform="matrix(0,1,1,-0,159.111053,104.435448)" style="stroke:#00a000;stroke-width:0.05mm;fill:none" d="M-7.3396,-0.583984L-7.226563,-0.564453C-6.832556,-0.49552,-6.559935,-0.131633,-6.604492,0.265869C-6.63959,0.491553,-6.790865,0.682154,-7.002686,0.767578L-6.879639,0.805908C-6.605741,0.919482,-6.434537,1.194842,-6.453857,1.490723C-6.458196,1.745538,-6.566281,1.987503,-6.752977,2.160979C-6.939673,2.334455,-7.188912,2.42451,-7.443359,2.410156C-7.926777,2.431937,-8.34022,2.065538,-8.376709,1.583008L-8.016113,1.534912L-7.979736,1.677246C-7.948102,1.82099,-7.861423,1.946987,-7.737508,2.026391C-7.613594,2.105795,-7.462905,2.131904,-7.319092,2.100586C-7.160772,2.067908,-7.021828,1.973703,-6.933185,1.838517C-6.844542,1.70333,-6.813536,1.53835,-6.84668,1.380127C-6.895724,1.109641,-7.136712,0.916684,-7.411377,0.927979C-7.497429,0.930703,-7.582805,0.944153,-7.665527,0.968018L-7.625488,0.651611L-7.567383,0.655518C-7.307942,0.686151,-7.062275,0.529761,-6.980225,0.281738C-6.920119,0.056837,-7.039384,-0.177479,-7.256592,-0.26123C-7.511513,-0.364028,-7.802328,-0.247034,-7.915039,0.003662C-7.947231,0.077388,-7.969164,0.155179,-7.980225,0.234863L-8.340576,0.170898C-8.302293,-0.153523,-8.084329,-0.428836,-7.777344,-0.540527C-7.636094,-0.585607,-7.486956,-0.600413,-7.3396,-0.583984zM-4.894531,-0.578125C-4.530322,-0.525907,-4.251988,-0.226201,-4.226807,0.140869L-4.585449,0.168701L-4.643311,-0.014404C-4.748437,-0.241056,-5.007729,-0.351308,-5.243896,-0.269775C-5.52793,-0.138406,-5.714691,0.140935,-5.727539,0.453613C-5.745537,0.582886,-5.754755,0.71323,-5.755127,0.84375C-5.620143,0.629697,-5.395428,0.488295,-5.144043,0.459229C-4.676399,0.406155,-4.252297,0.737508,-4.190674,1.204102C-4.089777,1.660474,-4.311476,2.127097,-4.729004,2.337158C-5.151711,2.513269,-5.639836,2.3668,-5.895752,1.987061C-6.08526,1.614368,-6.159387,1.19358,-6.108643,0.778564C-6.117908,0.410348,-6.009404,0.048469,-5.799072,-0.253906C-5.577638,-0.516685,-5.232476,-0.640403,-4.894531,-0.578125zM-1.60498,-0.584473C-1.534146,-0.576996,-1.46447,-0.561012,-1.397461,-0.536865C-1.166518,-0.44524,-0.987163,-0.257051,-0.906738,-0.021973C-0.699718,0.601455,-0.707101,1.275059,-0.927734,1.893799C-1.090103,2.281698,-1.512832,2.492646,-1.92041,2.38916C-2.280858,2.292218,-2.54917,1.99124,-2.604248,1.62207C-2.736326,1.057968,-2.703455,0.468057,-2.509521,-0.077881C-2.361349,-0.435188,-1.987058,-0.644811,-1.60498,-0.584473zM0.67627,-0.584473C0.999287,-0.55066,1.272714,-0.330389,1.374512,-0.021973C1.581371,0.601499,1.573903,1.275067,1.353271,1.893799C1.191065,2.281721,0.768359,2.49271,0.36084,2.38916C0.000366,2.292254,-0.267958,1.991263,-0.322998,1.62207C-0.455051,1.057976,-0.422266,0.468104,-0.228516,-0.077881C-0.080256,-0.435224,0.294131,-0.644843,0.67627,-0.584473zM-3.203613,2.358154L-3.614258,2.358154L-3.614258,1.94751L-3.203613,1.94751L-3.203613,2.358154zM4.359863,0.193848C4.633815,0.225856,4.844556,0.452013,4.857178,0.727539L4.86792,0.897949L4.86792,2.358154L4.509277,2.358154L4.509277,1.018066C4.541832,0.845389,4.48008,0.668409,4.347168,0.553467C4.152201,0.450515,3.913063,0.487496,3.758301,0.644531C3.647904,0.778055,3.594565,0.94974,3.609863,1.122314L3.609863,2.358154L3.249512,2.358154L3.249512,0.976074C3.281614,0.798063,3.200218,0.618543,3.045166,0.525391C2.844148,0.45231,2.619015,0.511534,2.47998,0.674072C2.371155,0.846818,2.323981,1.051439,2.346191,1.254395L2.346191,2.358154L1.985596,2.358154L1.985596,0.230957L2.308105,0.230957L2.308105,0.529297L2.424805,0.388428C2.716332,0.102719,3.18362,0.107306,3.469482,0.398682C3.505976,0.445987,3.534509,0.498928,3.553955,0.55542L3.689697,0.392334C3.867455,0.221079,4.117515,0.147018,4.359863,0.193848zM7.776855,0.193848C8.050807,0.225856,8.261549,0.452013,8.27417,0.727539L8.284668,0.897949L8.284668,2.358154L7.92627,2.358154L7.92627,1.018066C7.958841,0.845343,7.896977,0.66831,7.763916,0.553467C7.568949,0.450505,7.329807,0.487487,7.175049,0.644531C7.064885,0.77817,7.011654,0.949791,7.026855,1.122314L7.026855,2.358154L6.66626,2.358154L6.66626,0.976074C6.698435,0.798048,6.617025,0.618499,6.461914,0.525391C6.260969,0.452331,6.035921,0.511559,5.896973,0.674072C5.788119,0.846817,5.740866,1.051411,5.762939,1.254395L5.762939,2.358154L5.402344,2.358154L5.402344,0.230957L5.724854,0.230957L5.724854,0.529297L5.841553,0.388428C6.133194,0.102776,6.600495,0.107362,6.886475,0.398682C6.92277,0.446076,6.951209,0.498997,6.970703,0.55542L7.106445,0.392334C7.284324,0.221117,7.534435,0.147067,7.776855,0.193848zM-5.231689,0.782715C-5.519595,0.847685,-5.717659,1.112185,-5.698975,1.406738C-5.711567,1.649999,-5.597967,1.882737,-5.398438,2.022461C-5.177897,2.172538,-4.879388,2.131506,-4.70752,1.92749C-4.447789,1.609161,-4.485006,1.143405,-4.791992,0.870361C-4.920344,0.782102,-5.079306,0.750416,-5.231689,0.782715zM-1.841309,-0.278809C-2.016236,-0.23049,-2.152979,-0.09384,-2.201416,0.081055C-2.346474,0.618208,-2.349837,1.183573,-2.211182,1.722412C-2.140347,1.990276,-1.870896,2.155305,-1.600098,2.09668C-1.355909,2.001239,-1.189873,1.772486,-1.174805,1.510742C-1.098081,1.040331,-1.116088,0.559547,-1.227783,0.096191C-1.300834,-0.171251,-1.569981,-0.33576,-1.841309,-0.278809zM0.439697,-0.278809L0.334473,-0.239258C0.212407,-0.168118,0.121496,-0.05387,0.07959,0.081055C-0.065545,0.618201,-0.068825,1.183619,0.070068,1.722412C0.14072,1.990298,0.410153,2.155383,0.680908,2.09668C0.925252,2.001447,1.091379,1.77257,1.106201,1.510742C1.183076,1.040355,1.165151,0.559552,1.053467,0.096191C0.98033,-0.171295,0.711083,-0.335799,0.439697,-0.278809z"/>
    <path transform="matrix(-0,1,1,0,159.116043,85.68145)" style="stroke:#00a000;stroke-width:0.05mm;fill:none" d="M-3.246826,-0.576416L-3.082764,-0.534424C-2.70929,-0.40812,-2.498946,-0.012279,-2.603271,0.36792C-2.665362,0.558892,-2.817063,0.707492,-3.009277,0.765625L-2.88208,0.816406C-2.554307,0.977045,-2.383556,1.345546,-2.4729,1.699463C-2.57169,2.137914,-2.97543,2.438827,-3.423828,2.408203C-3.673767,2.426458,-3.92025,2.340261,-4.103775,2.169614C-4.2873,1.998966,-4.391169,1.759393,-4.391113,1.508789C-4.412727,1.157585,-4.175678,0.842348,-3.832275,0.765625L-3.937256,0.720215C-4.24544,0.560336,-4.369081,0.183113,-4.215332,-0.128174C-4.07445,-0.429967,-3.761915,-0.613817,-3.429688,-0.590332L-3.246826,-0.576416zM0.368408,0.193848C0.64236,0.225856,0.853101,0.452013,0.865723,0.727539L0.876221,0.897949L0.876221,2.358154L0.517822,2.358154L0.517822,1.018066C0.550394,0.845343,0.48853,0.66831,0.355469,0.553467C0.160502,0.450505,-0.07864,0.487487,-0.233398,0.644531C-0.343562,0.77817,-0.396793,0.949791,-0.381592,1.122314L-0.381592,2.358154L-0.741943,2.358154L-0.741943,0.976074C-0.71007,0.798085,-0.791405,0.618702,-0.946289,0.525391C-1.147308,0.452289,-1.372449,0.511516,-1.511475,0.674072C-1.620298,0.846828,-1.667549,1.051414,-1.645508,1.254395L-1.645508,2.358154L-2.005859,2.358154L-2.005859,0.230957L-1.68335,0.230957L-1.68335,0.529297L-1.566895,0.388428C-1.275273,0.10273,-0.807931,0.107316,-0.521973,0.398682C-0.485479,0.445986,-0.456946,0.498928,-0.4375,0.55542L-0.302002,0.392334C-0.124123,0.221118,0.125988,0.147068,0.368408,0.193848zM3.7854,0.193848C4.059367,0.225753,4.270089,0.452,4.282471,0.727539L4.293213,0.897949L4.293213,2.358154L3.934814,2.358154L3.934814,1.018066C3.967386,0.845343,3.905522,0.66831,3.772461,0.553467C3.577494,0.450505,3.338352,0.487487,3.183594,0.644531C3.073391,0.778152,3.020156,0.949784,3.0354,1.122314L3.0354,2.358154L2.674805,2.358154L2.674805,0.976074C2.706979,0.798048,2.62557,0.6185,2.470459,0.525391C2.269513,0.452331,2.044466,0.511559,1.905518,0.674072C1.796665,0.846817,1.749411,1.051411,1.771484,1.254395L1.771484,2.358154L1.410889,2.358154L1.410889,0.230957L1.733398,0.230957L1.733398,0.529297L1.850098,0.388428C2.141738,0.102771,2.609041,0.107357,2.89502,0.398682C2.931315,0.446076,2.959754,0.498997,2.979248,0.55542L3.11499,0.392334C3.292834,0.221059,3.542978,0.146999,3.7854,0.193848zM-3.553467,0.932373C-3.877393,1.00185,-4.081057,1.3221,-4.009837,1.645631C-3.938617,1.969161,-3.619301,2.174285,-3.296143,2.101318C-3.016476,2.053504,-2.815133,1.80626,-2.824951,1.522705C-2.821218,1.361167,-2.884128,1.205193,-2.998959,1.091516C-3.11379,0.97784,-3.270392,0.91651,-3.431885,0.921875L-3.553467,0.932373zM-3.524658,-0.285645C-3.745487,-0.248494,-3.906353,-0.05687,-3.906172,0.167057C-3.905991,0.390984,-3.744814,0.582348,-3.523926,0.619141C-3.401658,0.648535,-3.272573,0.628161,-3.16572,0.561865C-3.058866,0.495569,-2.983285,0.38896,-2.955322,0.266357C-2.909581,0.045554,-3.028877,-0.176365,-3.238281,-0.26001C-3.32978,-0.29383,-3.428608,-0.302677,-3.524658,-0.285645z"/>
    <path transform="matrix(0.005006,0,0,-0.005006,158.023056,82.081451)" style="stroke:#00a000;stroke-width:0.05mm;fill:none" d="M218,454.575684C214.425003,453.283417,205.199997,449.746124,197.5,446.714996C189.800003,443.683868,171.350006,436.454773,156.5,430.65033C98.718086,408.065033,102.666527,409.956726,100.883057,404.004028C99.358215,398.914551,101.011543,392.693756,104.495811,390.410797C106.843399,388.872589,211.792648,347.454468,221.218079,344.346436C225.709564,342.865387,226.149338,342.89389,230.375107,344.939545C237.304047,348.293793,239.598419,354.5802,236.366928,361.35672C234.240082,365.816772,231.9431,366.97821,204.260834,377.59079C191.479294,382.490845,181.0168,386.892822,181.010834,387.372925C181.004684,387.86908,252.540787,387.986725,346.75,387.645508C437.912506,387.315308,536.349976,387.021332,565.5,386.992188C595.854553,386.961823,617.85907,386.569427,617,386.073822C616.174988,385.597839,605.375,381.289368,593,376.49939C580.625,371.709442,569.314148,367.096008,567.864685,366.247345C565.031006,364.588104,562,359.22348,562,355.867188C562,348.748413,570.561279,341.94751,577.194458,343.796967C579.012512,344.303864,588.599976,347.890259,598.5,351.766724C608.400024,355.643188,628.650024,363.559753,643.5,369.359039C687.632874,386.594025,692.982056,388.75824,695.457764,390.380371C698.484619,392.363647,700.389343,398.111176,699.532776,402.67691C698.259033,409.466766,700.525513,408.372559,633.5,434.555878C624.150024,438.208435,609.164001,444.076111,600.197815,447.595184C574.347656,457.740906,574.888977,457.608765,569.624878,455.060455C561.776367,451.261047,559.93158,442.800079,565.507019,436.174011C567.411377,433.910797,573.416931,431.156891,593.375488,423.394562C607.368042,417.952545,618.677917,413.357605,618.508484,413.183563C617.988708,412.649597,180.999161,412.466248,181.011612,413C181.018021,413.274994,190.805542,417.267792,202.761642,421.872833C232.366043,433.275421,234.253784,434.211945,236.305557,438.514557C238.414139,442.93631,238.435669,445.279633,236.407028,449.554657C235.374008,451.731598,233.329727,453.630157,230.591309,454.955811C225.456619,457.441467,225.971146,457.457001,218,454.575684z"/>
    <path transform="matrix(0,1,1,-0,164.11055,103.435448)" style="stroke:#00a000;stroke-width:0.05mm;fill:none" d="M-7.3396,-0.583984L-7.226563,-0.564453C-6.832556,-0.49552,-6.559935,-0.131633,-6.604492,0.265869C-6.63959,0.491553,-6.790865,0.682154,-7.002686,0.767578L-6.879639,0.805908C-6.605741,0.919482,-6.434537,1.194842,-6.453857,1.490723C-6.458196,1.745538,-6.566281,1.987503,-6.752977,2.160979C-6.939673,2.334455,-7.188912,2.42451,-7.443359,2.410156C-7.926777,2.431937,-8.34022,2.065538,-8.376709,1.583008L-8.016113,1.534912L-7.979736,1.677246C-7.948102,1.82099,-7.861423,1.946987,-7.737508,2.026391C-7.613594,2.105795,-7.462905,2.131904,-7.319092,2.100586C-7.160772,2.067908,-7.021828,1.973703,-6.933185,1.838517C-6.844542,1.70333,-6.813536,1.53835,-6.84668,1.380127C-6.895724,1.109641,-7.136712,0.916684,-7.411377,0.927979C-7.497429,0.930703,-7.582805,0.944153,-7.665527,0.968018L-7.625488,0.651611L-7.567383,0.655518C-7.307942,0.686151,-7.062275,0.529761,-6.980225,0.281738C-6.920119,0.056837,-7.039384,-0.177479,-7.256592,-0.26123C-7.511513,-0.364028,-7.802328,-0.247034,-7.915039,0.003662C-7.947231,0.077388,-7.969164,0.155179,-7.980225,0.234863L-8.340576,0.170898C-8.302293,-0.153523,-8.084329,-0.428836,-7.777344,-0.540527C-7.636094,-0.585607,-7.486956,-0.600413,-7.3396,-0.583984zM-4.288818,-0.193848L-5.460693,-0.193848L-5.618896,0.595459L-5.485107,0.514893C-5.070216,0.295759,-4.556726,0.428017,-4.299316,0.820313C-4.029412,1.27898,-4.129855,1.86493,-4.537109,2.20752C-4.964685,2.53228,-5.570172,2.468836,-5.921143,2.0625C-6.022841,1.92407,-6.083953,1.760091,-6.097656,1.588867L-5.718994,1.556885L-5.690918,1.686523C-5.657835,1.829058,-5.569924,1.953046,-5.445776,2.030483C-5.321628,2.107922,-5.171612,2.132341,-5.029053,2.099365C-4.714702,2.015697,-4.505741,1.718665,-4.533203,1.394531C-4.517821,1.220503,-4.576803,1.04775,-4.696663,0.920656C-4.816523,0.793562,-4.985526,0.724569,-5.160156,0.729736C-5.375467,0.726456,-5.577391,0.833823,-5.695068,1.01416L-6.033447,0.969971L-5.749023,-0.53833L-4.288818,-0.53833L-4.288818,-0.193848zM-1.60498,-0.584473C-1.534146,-0.576996,-1.46447,-0.561012,-1.397461,-0.536865C-1.166518,-0.44524,-0.987163,-0.257051,-0.906738,-0.021973C-0.699718,0.601455,-0.707101,1.275059,-0.927734,1.893799C-1.090103,2.281698,-1.512832,2.492646,-1.92041,2.38916C-2.280858,2.292218,-2.54917,1.99124,-2.604248,1.62207C-2.736326,1.057968,-2.703455,0.468057,-2.509521,-0.077881C-2.361349,-0.435188,-1.987058,-0.644811,-1.60498,-0.584473zM0.67627,-0.584473C0.999287,-0.55066,1.272714,-0.330389,1.374512,-0.021973C1.581371,0.601499,1.573903,1.275067,1.353271,1.893799C1.191065,2.281721,0.768359,2.49271,0.36084,2.38916C0.000366,2.292254,-0.267958,1.991263,-0.322998,1.62207C-0.455051,1.057976,-0.422266,0.468104,-0.228516,-0.077881C-0.080256,-0.435224,0.294131,-0.644843,0.67627,-0.584473zM-3.203613,2.358154L-3.614258,2.358154L-3.614258,1.94751L-3.203613,1.94751L-3.203613,2.358154zM4.359863,0.193848C4.633815,0.225856,4.844556,0.452013,4.857178,0.727539L4.86792,0.897949L4.86792,2.358154L4.509277,2.358154L4.509277,1.018066C4.541832,0.845389,4.48008,0.668409,4.347168,0.553467C4.152201,0.450515,3.913063,0.487496,3.758301,0.644531C3.647904,0.778055,3.594565,0.94974,3.609863,1.122314L3.609863,2.358154L3.249512,2.358154L3.249512,0.976074C3.281614,0.798063,3.200218,0.618543,3.045166,0.525391C2.844148,0.45231,2.619015,0.511534,2.47998,0.674072C2.371155,0.846818,2.323981,1.051439,2.346191,1.254395L2.346191,2.358154L1.985596,2.358154L1.985596,0.230957L2.308105,0.230957L2.308105,0.529297L2.424805,0.388428C2.716332,0.102719,3.18362,0.107306,3.469482,0.398682C3.505976,0.445987,3.534509,0.498928,3.553955,0.55542L3.689697,0.392334C3.867455,0.221079,4.117515,0.147018,4.359863,0.193848zM7.776855,0.193848C8.050807,0.225856,8.261549,0.452013,8.27417,0.727539L8.284668,0.897949L8.284668,2.358154L7.92627,2.358154L7.92627,1.018066C7.958841,0.845343,7.896977,0.66831,7.763916,0.553467C7.568949,0.450505,7.329807,0.487487,7.175049,0.644531C7.064885,0.77817,7.011654,0.949791,7.026855,1.122314L7.026855,2.358154L6.66626,2.358154L6.66626,0.976074C6.698435,0.798048,6.617025,0.618499,6.461914,0.525391C6.260969,0.452331,6.035921,0.511559,5.896973,0.674072C5.788119,0.846817,5.740866,1.051411,5.762939,1.254395L5.762939,2.358154L5.402344,2.358154L5.402344,0.230957L5.724854,0.230957L5.724854,0.529297L5.841553,0.388428C6.133194,0.102776,6.600495,0.107362,6.886475,0.398682C6.92277,0.446076,6.951209,0.498997,6.970703,0.55542L7.106445,0.392334C7.284324,0.221117,7.534435,0.147067,7.776855,0.193848zM-1.841309,-0.278809C-2.016236,-0.23049,-2.152979,-0.09384,-2.201416,0.081055C-2.346474,0.618208,-2.349837,1.183573,-2.211182,1.722412C-2.140347,1.990276,-1.870896,2.155305,-1.600098,2.09668C-1.355909,2.001239,-1.189873,1.772486,-1.174805,1.510742C-1.098081,1.040331,-1.116088,0.559547,-1.227783,0.096191C-1.300834,-0.171251,-1.569981,-0.33576,-1.841309,-0.278809zM0.439697,-0.278809L0.334473,-0.239258C0.212407,-0.168118,0.121496,-0.05387,0.07959,0.081055C-0.065545,0.618201,-0.068825,1.183619,0.070068,1.722412C0.14072,1.990298,0.410153,2.155383,0.680908,2.09668C0.925252,2.001447,1.091379,1.77257,1.106201,1.510742C1.183076,1.040355,1.165151,0.559552,1.053467,0.096191C0.98033,-0.171295,0.711083,-0.335799,0.439697,-0.278809z"/>
    <path transform="matrix(-0,1,1,0,164.11055,86.541451)" style="stroke:#00a000;stroke-width:0.05mm;fill:none" d="M-2.174561,-0.584473L-2.067383,-0.566406C-1.79034,-0.497852,-1.56749,-0.292499,-1.476563,-0.021973C-1.269542,0.601455,-1.276925,1.275059,-1.497559,1.893799C-1.659833,2.281781,-2.082647,2.492772,-2.490234,2.38916C-2.850588,2.292048,-3.118815,1.991167,-3.174072,1.62207C-3.306126,1.057967,-3.273255,0.46806,-3.079346,-0.077881C-2.931122,-0.435262,-2.556714,-0.644894,-2.174561,-0.584473zM-4.169678,2.358154L-4.530273,2.358154L-4.530273,0.060547L-4.680664,0.184814C-4.857057,0.312004,-5.048858,0.416354,-5.251465,0.495361L-5.251465,0.146729L-4.968018,-0.010498C-4.731795,-0.150712,-4.536534,-0.350774,-4.4021,-0.590332L-4.169678,-0.590332L-4.169678,2.358154zM1.509033,0.193848C1.782985,0.225856,1.993727,0.452013,2.006348,0.727539L2.016846,0.897949L2.016846,2.358154L1.658447,2.358154L1.658447,1.018066C1.691019,0.845343,1.629155,0.66831,1.496094,0.553467C1.301127,0.450505,1.061985,0.487487,0.907227,0.644531C0.797063,0.77817,0.743832,0.949791,0.759033,1.122314L0.759033,2.358154L0.398438,2.358154L0.398438,0.976074C0.430612,0.798048,0.349203,0.6185,0.194092,0.525391C-0.006854,0.452331,-0.231902,0.511559,-0.37085,0.674072C-0.479703,0.846817,-0.526956,1.051411,-0.504883,1.254395L-0.504883,2.358154L-0.865479,2.358154L-0.865479,0.230957L-0.542969,0.230957L-0.542969,0.529297L-0.42627,0.388428C-0.134628,0.102776,0.332673,0.107361,0.618652,0.398682C0.654948,0.446076,0.683387,0.498997,0.702881,0.55542L0.838623,0.392334C1.016502,0.221117,1.266613,0.147068,1.509033,0.193848zM4.926025,0.193848C5.199885,0.225965,5.410494,0.452091,5.423096,0.727539L5.433838,0.897949L5.433838,2.358154L5.075195,2.358154L5.075195,1.018066C5.107959,0.845383,5.046165,0.668284,4.913086,0.553467C4.718119,0.450505,4.478978,0.487487,4.324219,0.644531C4.213802,0.778032,4.160537,0.949763,4.176025,1.122314L4.176025,2.358154L3.81543,2.358154L3.81543,0.976074C3.847568,0.798056,3.766164,0.618522,3.611084,0.525391C3.41006,0.45238,3.184973,0.511593,3.045898,0.674072C2.93728,0.846911,2.890126,1.051447,2.912109,1.254395L2.912109,2.358154L2.551514,2.358154L2.551514,0.230957L2.874023,0.230957L2.874023,0.529297L2.990723,0.388428C3.282249,0.102715,3.749539,0.107302,4.0354,0.398682C4.071894,0.445987,4.100427,0.498928,4.119873,0.55542L4.255615,0.392334C4.433448,0.221036,4.6836,0.146974,4.926025,0.193848zM-2.411133,-0.278809C-2.586036,-0.230456,-2.722769,-0.093816,-2.77124,0.081055C-2.916274,0.61821,-2.919637,1.183571,-2.781006,1.722412C-2.710171,1.990276,-2.440721,2.155305,-2.169922,2.09668C-1.925733,2.001238,-1.759697,1.772486,-1.744629,1.510742C-1.667905,1.040331,-1.685912,0.559547,-1.797607,0.096191C-1.870561,-0.171318,-2.13979,-0.335877,-2.411133,-0.278809z"/>
    <path transform="matrix(0.005006,0,0,-0.005006,163.022552,82.081451)" style="stroke:#00a000;stroke-width:0.05mm;fill:none" d="M218,454.575684C214.425003,453.283417,205.199997,449.746124,197.5,446.714996C189.800003,443.683868,171.350006,436.454773,156.5,430.65033C98.718086,408.065033,102.666527,409.956726,100.883057,404.004028C99.358215,398.914551,101.011543,392.693756,104.495811,390.410797C106.843399,388.872589,211.792648,347.454468,221.218079,344.346436C225.709564,342.865387,226.149338,342.89389,230.375107,344.939545C237.304047,348.293793,239.598419,354.5802,236.366928,361.35672C234.240082,365.816772,231.9431,366.97821,204.260834,377.59079C191.479294,382.490845,181.0168,386.892822,181.010834,387.372925C181.004684,387.86908,252.540787,387.986725,346.75,387.645508C437.912506,387.315308,536.349976,387.021332,565.5,386.992188C595.854553,386.961823,617.85907,386.569427,617,386.073822C616.174988,385.597839,605.375,381.289368,593,376.49939C580.625,371.709442,569.314148,367.096008,567.864685,366.247345C565.031006,364.588104,562,359.22348,562,355.867188C562,348.748413,570.561279,341.94751,577.194458,343.796967C579.012512,344.303864,588.599976,347.890259,598.5,351.766724C608.400024,355.643188,628.650024,363.559753,643.5,369.359039C687.632874,386.594025,692.982056,388.75824,695.457764,390.380371C698.484619,392.363647,700.389343,398.111176,699.532776,402.67691C698.259033,409.466766,700.525513,408.372559,633.5,434.555878C624.150024,438.208435,609.164001,444.076111,600.197815,447.595184C574.347656,457.740906,574.888977,457.608765,569.624878,455.060455C561.776367,451.261047,559.93158,442.800079,565.507019,436.174011C567.411377,433.910797,573.416931,431.156891,593.375488,423.394562C607.368042,417.952545,618.677917,413.357605,618.508484,413.183563C617.988708,412.649597,180.999161,412.466248,181.011612,413C181.018021,413.274994,190.805542,417.267792,202.761642,421.872833C232.366043,433.275421,234.253784,434.211945,236.305557,438.514557C238.414139,442.93631,238.435669,445.279633,236.407028,449.554657C235.374008,451.731598,233.329727,453.630157,230.591309,454.955811C225.456619,457.441467,225.971146,457.457001,218,454.575684z"/>
    <path transform="matrix(1,0,0,-1,160.022247,95.851944)" style="stroke:#00a000;stroke-width:0.05mm;fill:none" d="M2.5,-17.500002L2.5,17.500002L2.5,-17.500002z"/>
    <path transform="matrix(0.5,0,0,-1,155.022247,96.351944)" style="stroke:#00a000;stroke-width:0.05mm;fill:none" d="M5,-18.000002L5,18.000002L5,-18.000002z"/>
    <path transform="matrix(0.333334,0,0,-1,150.022247,96.851944)" style="stroke:#00a000;stroke-width:0.05mm;fill:none" d="M7.499999,-18.500002L7.499999,18.500002L7.499999,-18.500002z"/>
    <path transform="matrix(0.25,0,0,-1,145.022247,97.351944)" style="stroke:#00a000;stroke-width:0.05mm;fill:none" d="M9.999999,-19.000002L9.999999,19.000002L9.999999,-19.000002z"/>
    <path transform="matrix(0.200001,0,0,-0.987179,140.022247,97.601944)" style="stroke:#00a000;stroke-width:0.05mm;fill:none" d="M12.499998,-19.500002L12.499998,19.500002L12.499998,-19.500002z"/>
    <path transform="matrix(1,0,0,-1,-123.480057,194.354462)" style="stroke:#00a000;stroke-width:0.05mm;fill:none" d="M261.002319,77.001976L261.002319,116.001984"/>
</svg>
